<svg xmlns="http://www.w3.org/2000/svg" width="29.698" height="26.102" viewBox="0 0 29.698 26.102">
  <g id="supermarket" transform="translate(0 0)">
    <path id="Контур_1" data-name="Контур 1" d="M9.568,17.4H25.347a.87.87,0,0,0,.837-.631l3.48-12.181a.87.87,0,0,0-.837-1.109H7.562L6.94.681A.87.87,0,0,0,6.09,0H.87a.87.87,0,1,0,0,1.74H5.392L8.534,15.876A2.61,2.61,0,0,0,9.57,20.881H25.347a.87.87,0,0,0,0-1.74H9.57a.87.87,0,0,1,0-1.74ZM27.674,5.22,24.691,15.661H10.268L7.948,5.22Zm0,0"/>
    <path id="Контур_2" data-name="Контур 2" d="M150,362.61a2.61,2.61,0,1,0,2.61-2.61A2.613,2.613,0,0,0,150,362.61Zm2.61-.87a.87.87,0,1,1-.87.87A.871.871,0,0,1,152.61,361.74Zm0,0" transform="translate(-141.3 -339.119)"/>
    <path id="Контур_3" data-name="Контур 3" d="M362,362.61a2.61,2.61,0,1,0,2.61-2.61A2.613,2.613,0,0,0,362,362.61Zm2.61-.87a.87.87,0,1,1-.87.87A.871.871,0,0,1,364.61,361.74Zm0,0" transform="translate(-341.003 -339.119)"/>
  </g>
</svg>
